<svg version="1.2" xmlns="http://www.w3.org/2000/svg" viewBox="0 0 169 67" width="169" height="67">
	<title>logo-svg</title>
	<style>
		.s0 { fill: #f37720 } 
	</style>
	<g id="&lt;Group&gt;">
		<path id="&lt;Path&gt;" class="s0" d="m152.4 23.3c0 0.8 0 1.5-0.3 2.4-0.7-0.4-0.7-1.7-0.3-2.2 0.2-0.2 0.5-0.3 0.6-0.2z"/>
		<path id="&lt;Path&gt;" class="s0" d="m116.8 26.9c0.6 0.6 0.3 1.8 0.3 1.8q-0.3 0.4-1.3 0.6c-0.8 0.2-0.9-0.2-1-0.4-0.1-0.7 0.5-1.7 1.2-2 0.3-0.2 0.7-0.1 0.8 0z"/>
		<path id="&lt;Path&gt;" class="s0" d="m76.7 37.4c-0.3 0.7-1.2 1.7-2.3 2.6-1.5-2.2-0.1-4.7 1.3-4.7 1.1 0 1.6 0.7 1 2.1z"/>
		<path id="&lt;Path&gt;" class="s0" d="m151.9 18.7c0.5 0.5 0.7 1.4 0.6 2.5v0.1c0 0-2.2 0.1-2.3 3.3-0.2 1.9 1.5 2.8 1.5 2.8l-0.1 0.4c-0.5 1.4-1 2.9-2.3 3q-0.6 0.1-1-0.2c-0.4-0.4-0.6-0.7-0.6-1.9 0.1-2.9 1.5-10.2 3.5-10.3q0.4 0 0.7 0.3z"/>
		<path id="&lt;Compound Path&gt;" fill-rule="evenodd" class="s0" d="m165.2 22.3q0 1.1-0.1 2.3c-1.9 12.7-12 16.5-22.7 18.7-11.8 2.4-101.3 20-107 21-5.1 1-17.9 2.5-25.7-3.3-4.7-3.6-7.4-8.5-7.8-14.2-0.6-9.8 4.6-19.9 14.8-28.4 5.8-4.8 13.8-7.9 19.4-9.1 5.8-1.3 11.6-1 16.8 0.7 0 0 0.1 0.1 0.3 0.2 0.1-0.2 0.2-0.3 0.2-0.3 2.4-3.1 7.6-8.3 15.1-8.6 6.2-0.2 9.9 2.2 11.8 4.4 1.6 1.7 2.7 4 3 6.5 0 0 0.1 0.2 0.1 0.4 0.2 0 0.4 0 0.4 0 6.3-0.2 61.3-2.1 66.5-2.2 3.7-0.1 8.9 0.3 12.2 3.9 1.7 1.9 2.7 4.8 2.7 7.9zm-101.3-4.3c0.9 1.2 2.6 1.8 4.8 1.7 3.1-0.2 6.2-1.7 6.4-4.9 0.1-2.2-1.6-4.4-5-4.6-2-0.1-3.7 0.4-4.9 1.4q-1.4 1.1-1.9 3-0.5 2.1 0.6 3.4zm94.8 6.3c-0.1-0.1-0.1-0.5-0.3-0.8-0.5 1-1.4 2.1-2.2 2.2l-0.4 0.1c0 0 0.3-2.2 0.3-2.8 0-3.1-0.7-6.2-5.4-5.9-2.9 0.2-7.1 2.8-7.6 8.3q0 0 0 0.1c-0.7 1.9-2 4.6-2.9 4.7q-0.3 0-0.6-0.2-0.2-0.2-0.2-0.7c0-0.6 0.2-1.5 0.5-2.6 0.3-1.6 0.6-3 0.7-4.6 0.3-3.7-1.9-4.4-4.3-4.2-1.7 0.2-3.3 1.2-3.7 1.8l-0.9 0.9c0 0 0.4-1.8 0.5-2.3-0.7 0-4.8 0.2-5.3 0.3l-1.7 7.5c-0.6 0.9-1.5 1.6-2.2 1.8l-0.4 0.1v-0.4q-0.1-0.6-0.2-1.1c-0.2-0.9-0.9-3.7-3.7-3.5-7.3 0.8-6.9 9.7-2.6 8.4l0.5-0.2-0.1 0.5c-0.5 3.6-2 5.5-4.1 5.8q-0.5 0.1-0.8-0.2c-0.4-0.4-0.6-1-0.6-1.8 0-1.7 3.3-16.3 3.3-16.3 0 0-6.3 0.3-6.7 0.3-0.4 1.4-1.6 7.2-1.6 7.2l-0.2 0.7c-0.3 1-0.5 1.7-0.6 2.4q0 0.1 0 0.2c-1.1 2.7-2.8 5.7-4.2 5.9q-0.5 0-0.8-0.2c-0.2-0.2-0.3-0.5-0.3-0.8v-0.1l0.1-1.2c0 0 3.4-13 3.6-13.9-0.8 0.1-7.6 0.3-7.6 0.3l-0.7 2.4c-0.2-2-4.3-4.5-7.3-1.7-3.2 3-4 7.4-4.4 11.7l-0.1 0.2c-0.6 5.2-1.7 8.7-5.3 9.3-0.9 0.1-1.6 0.1-2.1-0.3 1.2-0.9 1.9-1.7 2.5-2.7 1.3-2.3 0.7-4.2-0.7-5.1-2.8-1.8-5.9 0.5-6.4 3.4-0.3 1.7 0.3 3.2 0.9 4-1 0.6-1.7 1.2-3.1 1.4-0.8 0.1-1.5-0.3-1.8-0.6-0.8-1.1 0.2-4.6 0.4-5 0 0 4.7-14.8 4.9-15.8-0.8 0.1-10 0.6-10.4 0.6-0.3 0.9-1.4 4.5-2.5 7.9-2.3 6.5-8.9 15.5-15.9 17.4-3.7 1-6.6 0.9-8.4-0.2-2.6-1.5-4-5.2-3.2-10.4 0.7-3.7 1.3-5 2.2-7.1 5.6-12.5 15.1-9.9 14.5-8.9-0.9 0.3-1.8 0.8-1.8 0.8-1.4 0.8-3.8 3.2-3.9 6.1 0 1.9 0.5 3.4 1.6 4.4 1 0.9 2.4 1.4 4.1 1.2 3.7-0.4 6.7-3.2 6.7-7.4 0.1-2.2-0.6-4-1.9-5.4-2.1-2.1-4.6-3.2-10-2.9-8.4 0.3-21.1 6.5-24.5 19.9-1.2 4.5 0.5 9.9 3.2 12.3 3.8 3.4 8.5 4.6 16.6 2.9 7.2-1.4 13.1-6.5 17.4-11.7q-0.1 0.1-0.1 0.2c-0.9 3.8 0.5 7.9 6.9 6.9 2.6-0.3 7.2-1.9 10.5-4.5 1.5 1.3 4 2 7 1.5 1.2-0.2 4.3-1.1 6.9-5 2.1-3.1 3.1-9.1 3.6-12.3 0.3-1.6 0.5-2.5 0.7-3 0.2-0.4 0.4-0.8 0.9-1.1 1.1-0.5 1.7 0.6 1.5 1.5-0.2 0.8-1.3 4.9-1.3 4.9l-0.2 0.7c-0.7 2-1.4 4.3-1.4 6.7 0 1.8 0.4 3.2 1.4 4 0.8 0.8 2.1 1.1 3.5 0.9 4-0.7 6.8-4.8 8.1-7.2l0.2-0.3 0.3-0.5 0.1 0.9c0.7 3.5 3.5 4.9 7.7 4.2 5.4-0.9 8.6-3.7 9.5-8.6v-0.2l0.2-0.1q0.8-0.3 1.5-0.8l0.4-0.3-1.8 7.9c0.8-0.2 5.8-1.1 6.3-1.1 0-0.5 2.1-10 2.1-10 0.4-1.7 1.4-4.8 2.6-4.9q0.4-0.1 0.6 0.2c0.3 0.3 0.5 0.7 0.5 1.3-0.1 1-0.4 2.2-0.7 3.5-0.4 1.6-0.9 3.6-1 5.6-0.3 3.3 2.5 3.2 3.3 3.1 2-0.3 4.6-1.4 6.7-6.3l0.1 0.5c0.6 2.7 3.1 4.3 5.6 3.8 3.1-0.5 5.2-2.2 6.4-5v-0.2l0.2-0.1c1.3-0.1 2.9-1.6 3.3-3.2z"/>
	</g>
</svg>